HIERARCHY
ROOT Hips
{
	OFFSET -14.64140 90.27770 -84.91600
	CHANNELS 6 Xposition Yposition Zposition Zrotation Xrotation Yrotation
	JOINT Spine
	{
		OFFSET 0.00000 13.20850 -1.60436
		CHANNELS 3 Zrotation Xrotation Yrotation
		JOINT Spine1
		{
			OFFSET 0.00000 8.61716 0.00000
			CHANNELS 3 Zrotation Xrotation Yrotation
			JOINT Spine2
			{
				OFFSET 0.00000 8.61717 0.00000
				CHANNELS 3 Zrotation Xrotation Yrotation
				JOINT Spine3
				{
					OFFSET 0.00000 8.61717 0.00000
					CHANNELS 3 Zrotation Xrotation Yrotation
					JOINT Neck
					{
						OFFSET 0.00000 11.07920 1.10792
						CHANNELS 3 Zrotation Xrotation Yrotation
						JOINT Neck1
						{
							OFFSET 0.00000 7.08032 0.00000
							CHANNELS 3 Zrotation Xrotation Yrotation
							JOINT Head
							{
								OFFSET 0.00000 7.08031 0.00000
								CHANNELS 3 Zrotation Xrotation Yrotation
								End site
								{
									OFFSET 0.00000 0.00000 0.00000
								}
							}
						}
					}
					JOINT RightShoulder
					{
						OFFSET -0.01000 7.91373 5.19711
						CHANNELS 3 Zrotation Xrotation Yrotation
						JOINT RightArm
						{
							OFFSET -18.41580 0.00000 0.00000
							CHANNELS 3 Zrotation Xrotation Yrotation
							JOINT RightForeArm
							{
								OFFSET -29.11090 0.00000 0.00000
								CHANNELS 3 Zrotation Xrotation Yrotation
								JOINT RightHand
								{
									OFFSET -24.65040 0.00000 0.00000
									CHANNELS 3 Zrotation Xrotation Yrotation
									JOINT RightHandThumb1
									{
										OFFSET -5.35114 -0.85590 3.97906
										CHANNELS 3 Zrotation Xrotation Yrotation
										JOINT RightHandThumb2
										{
											OFFSET -4.52789 0.00000 0.00000
											CHANNELS 3 Zrotation Xrotation Yrotation
											JOINT RightHandThumb3
											{
												OFFSET -2.46976 0.00000 0.00000
												CHANNELS 3 Zrotation Xrotation Yrotation
												End site
												{
													OFFSET 0.00000 0.00000 0.00000
												}
											}
										}
									}
									JOINT RightHandIndex1
									{
										OFFSET -14.26970 0.00000 2.88139
										CHANNELS 3 Zrotation Xrotation Yrotation
										JOINT RightHandIndex2
										{
											OFFSET -5.48836 0.00000 0.00000
											CHANNELS 3 Zrotation Xrotation Yrotation
											JOINT RightHandIndex3
											{
												OFFSET -3.01859 0.00000 0.00000
												CHANNELS 3 Zrotation Xrotation Yrotation
												End site
												{
													OFFSET 0.00000 0.00000 0.00000
												}
											}
										}
									}
									JOINT RightHandMiddle1
									{
										OFFSET -14.26970 0.00000 -0.09147
										CHANNELS 3 Zrotation Xrotation Yrotation
										JOINT RightHandMiddle2
										{
											OFFSET -6.17441 0.00000 0.00000
											CHANNELS 3 Zrotation Xrotation Yrotation
											JOINT RightHandMiddle3
											{
												OFFSET -3.56743 0.00000 0.00000
												CHANNELS 3 Zrotation Xrotation Yrotation
												End site
												{
													OFFSET 0.00000 0.00000 0.00000
												}
											}
										}
									}
									JOINT RightHandRing1
									{
										OFFSET -12.69180 0.00000 -3.06433
										CHANNELS 3 Zrotation Xrotation Yrotation
										JOINT RightHandRing2
										{
											OFFSET -5.62556 0.00000 0.00000
											CHANNELS 3 Zrotation Xrotation Yrotation
											JOINT RightHandRing3
											{
												OFFSET -3.56744 0.00000 0.00000
												CHANNELS 3 Zrotation Xrotation Yrotation
												End site
												{
													OFFSET 0.00000 0.00000 0.00000
												}
											}
										}
									}
									JOINT RightHandPinky1
									{
										OFFSET -11.11390 0.00000 -6.03719
										CHANNELS 3 Zrotation Xrotation Yrotation
										JOINT RightHandPinky2
										{
											OFFSET -4.52789 0.00000 0.00000
											CHANNELS 3 Zrotation Xrotation Yrotation
											JOINT RightHandPinky3
											{
												OFFSET -2.46976 0.00000 0.00000
												CHANNELS 3 Zrotation Xrotation Yrotation
												End site
												{
													OFFSET 0.00000 0.00000 0.00000
												}
											}
										}
									}
								}
							}
						}
					}
					JOINT LeftShoulder
					{
						OFFSET 0.01000 7.91373 5.19711
						CHANNELS 3 Zrotation Xrotation Yrotation
						JOINT LeftArm
						{
							OFFSET 18.41580 0.00000 0.00000
							CHANNELS 3 Zrotation Xrotation Yrotation
							JOINT LeftForeArm
							{
								OFFSET 29.11090 0.00000 0.00000
								CHANNELS 3 Zrotation Xrotation Yrotation
								JOINT LeftHand
								{
									OFFSET 24.65040 0.00000 0.00000
									CHANNELS 3 Zrotation Xrotation Yrotation
									JOINT LeftHandThumb1
									{
										OFFSET 5.35114 -0.85590 3.97906
										CHANNELS 3 Zrotation Xrotation Yrotation
										JOINT LeftHandThumb2
										{
											OFFSET 4.52789 0.00000 0.00000
											CHANNELS 3 Zrotation Xrotation Yrotation
											JOINT LeftHandThumb3
											{
												OFFSET 2.46977 0.00000 0.00000
												CHANNELS 3 Zrotation Xrotation Yrotation
												End site
												{
													OFFSET 0.00000 0.00000 0.00000
												}
											}
										}
									}
									JOINT LeftHandIndex1
									{
										OFFSET 14.26970 0.00000 2.88139
										CHANNELS 3 Zrotation Xrotation Yrotation
										JOINT LeftHandIndex2
										{
											OFFSET 5.48836 0.00000 0.00000
											CHANNELS 3 Zrotation Xrotation Yrotation
											JOINT LeftHandIndex3
											{
												OFFSET 3.01859 0.00000 0.00000
												CHANNELS 3 Zrotation Xrotation Yrotation
												End site
												{
													OFFSET 0.00000 0.00000 0.00000
												}
											}
										}
									}
									JOINT LeftHandMiddle1
									{
										OFFSET 14.26970 0.00000 -0.09147
										CHANNELS 3 Zrotation Xrotation Yrotation
										JOINT LeftHandMiddle2
										{
											OFFSET 6.17440 0.00000 0.00000
											CHANNELS 3 Zrotation Xrotation Yrotation
											JOINT LeftHandMiddle3
											{
												OFFSET 3.56744 0.00000 0.00000
												CHANNELS 3 Zrotation Xrotation Yrotation
												End site
												{
													OFFSET 0.00000 0.00000 0.00000
												}
											}
										}
									}
									JOINT LeftHandRing1
									{
										OFFSET 12.69180 0.00000 -3.06433
										CHANNELS 3 Zrotation Xrotation Yrotation
										JOINT LeftHandRing2
										{
											OFFSET 5.62556 0.00000 0.00000
											CHANNELS 3 Zrotation Xrotation Yrotation
											JOINT LeftHandRing3
											{
												OFFSET 3.56744 0.00000 0.00000
												CHANNELS 3 Zrotation Xrotation Yrotation
												End site
												{
													OFFSET 0.00000 0.00000 0.00000
												}
											}
										}
									}
									JOINT LeftHandPinky1
									{
										OFFSET 11.11390 0.00000 -6.03719
										CHANNELS 3 Zrotation Xrotation Yrotation
										JOINT LeftHandPinky2
										{
											OFFSET 4.52789 0.00000 0.00000
											CHANNELS 3 Zrotation Xrotation Yrotation
											JOINT LeftHandPinky3
											{
												OFFSET 2.46976 0.00000 0.00000
												CHANNELS 3 Zrotation Xrotation Yrotation
												End site
												{
													OFFSET 0.00000 0.00000 0.00000
												}
											}
										}
									}
								}
							}
						}
					}
					JOINT pCube4
					{
						OFFSET 0.00000 10.91090 1.10792
						CHANNELS 3 Zrotation Xrotation Yrotation
						End site
						{
							OFFSET 0.00000 0.00000 0.00000
						}
					}
				}
			}
		}
	}
	JOINT RightUpLeg
	{
		OFFSET -9.98441 0.00000 0.00000
		CHANNELS 3 Zrotation Xrotation Yrotation
		JOINT RightLeg
		{
			OFFSET 0.00000 -42.11790 0.00000
			CHANNELS 3 Zrotation Xrotation Yrotation
			JOINT RightFoot
			{
				OFFSET 0.00000 -45.00020 -0.00001
				CHANNELS 3 Zrotation Xrotation Yrotation
				JOINT RightForeFoot
				{
					OFFSET 0.00000 -3.74820 0.00000
					CHANNELS 3 Zrotation Xrotation Yrotation
					JOINT RightToeBase
					{
						OFFSET 0.00000 0.06325 14.43120
						CHANNELS 3 Zrotation Xrotation Yrotation
						End site
						{
							OFFSET 0.00000 0.00000 0.00000
						}
					}
				}
			}
		}
	}
	JOINT LeftUpLeg
	{
		OFFSET 9.98441 0.00000 0.00000
		CHANNELS 3 Zrotation Xrotation Yrotation
		JOINT LeftLeg
		{
			OFFSET 0.00000 -42.11800 0.00000
			CHANNELS 3 Zrotation Xrotation Yrotation
			JOINT LeftFoot
			{
				OFFSET 0.00000 -45.00070 0.00000
				CHANNELS 3 Zrotation Xrotation Yrotation
				JOINT LeftForeFoot
				{
					OFFSET 0.00000 -3.74824 0.00000
					CHANNELS 3 Zrotation Xrotation Yrotation
					JOINT LeftToeBase
					{
						OFFSET 0.00000 0.06325 14.43110
						CHANNELS 3 Zrotation Xrotation Yrotation
						End site
						{
							OFFSET 0.00000 0.00000 0.00000
						}
					}
				}
			}
		}
	}
}
MOTION
Frames: 4
Frame Time: 0.050000
0.03251290643859624 -0.002704967368010628 0.030454674195642868 0.04510326909634149 -0.025704049506328038 0.025869746518368333 -2.496918468132644 -0.31691872962089146 -0.8844168750679692 -0.7801139789863621 3.547098151598468 0.29640398709956317 -1.051774119376869 -2.3073076300237854 -2.230480660317391 0.2896704281653955 0.01006441317775831 -0.9818587473654947 -0.051754928879530315 13.035139748965914 0.09747593951116651 0.20561003220471866 0.39229971519915013 -0.3643147253160881 0.13310815910023943 -14.09980124910175 -0.0011094002738531042 -4.182614069639926 1.5395957599844343 -14.460617172405989 69.2778909639282 9.465005667002432 9.945631342516421 50.49362864508272 4.751261283719367 94.61249532180801 25.218793562641988 -0.34085961443087703 -5.058937452395026 4.524935867237844 -0.08837299736377047 -1.6381907587184665 -0.03576992169052655 -0.022276563583233613 -56.23161296984367 -0.013737274391703878 -0.035103864028077046 -56.27447623035238 -38.75007367884342 -0.031341110339504215 0.03741475588306932 -0.0008345009258227741 -0.0035407485629864507 0.047312268869616224 -0.0013687191997484105 -0.01502515764116778 -0.010999447873267523 -36.70433029477155 0.04823460375162407 -0.0012786052505130488 0.009294196421901553 -0.030418835949826716 0.04575051718030557 -0.007209365629165269 -0.025029508940310186 -0.014642696550407935 -19.715830883103166 0.007524607512542836 0.023517235585044618 0.04868916031711287 0.04674938737657197 -0.005641671711428517 0.0354282501760164 -0.022552688844820198 0.0188141246998541 24.006783573437932 0.04093688228419036 0.01570507530701948 28.83034107805223 -0.025682991286225944 0.032257475258322295 28.822389509451952 -0.02664077106861264 -0.03256994022683447 6.910801963235239 1.6524479576999676 11.85734731912475 -69.34675956827023 14.156122197416526 -15.147728547984718 -75.12837565904242 0.3851781365118245 -96.5867725667528 -17.497421036077675 -2.0525089950384996 -0.04933944252236383 -0.46314085466671545 0.07871141454833781 -8.145647429166988 0.0386019887253439 0.027903406462178062 44.61321709023478 0.04155824476525928 0.012925561179332103 44.530565927819524 12.46763707291755 -0.047657224773500415 0.00602969500466572 -0.0005715825239337377 -0.026573464478947376 -0.044596722935633416 0.02819593174794534 -0.02277062004545934 0.00499243946092483 11.119307652233463 -0.009557772560179995 0.04058172889960067 0.014446643084949857 0.04807705455346377 0.02915726697857038 0.03654605445425709 -0.012100783656086501 -0.03453622172119257 4.761098635618105 0.011694185811361238 0.01137873546122195 0.023337229200558217 0.019956687077685296 -0.010184181657418424 0.0092562754573377 -0.017049965972264967 0.03825484790295461 -5.600553482204901 0.03766202132847475 -0.014517193798132037 -6.748732536347799 -0.027084103759913932 -0.010041963053457807 -6.752990957996746 -0.04406201092181533 -0.005640345493484089 0.009317891782117019 0.034319976869160655 -0.031535049079732126 8.005198250338873 3.531419748412205 -19.21394392783637 -0.016388592237280553 10.417661144765123 -0.014904396505292267 -5.633805129299313 -15.70819353519097 3.1947209055186754 0.047658447807110677 0.03706151629277475 -0.032937724818345615 0.034434853481302846 4.719022067452085 -0.00166677233064354 12.503827303815502 -8.225237581399519 6.912142168858299 0.04610842144251865 46.353566695270786 0.008144367279166561 -4.312353472563195 -14.796536542170584 -3.843877208461685 0.018679226302391813 -0.017594150031090744 -0.011168365592795552 -0.006975470536501135 -10.749332433941138 0.011096057108935766 
0.0026742743822993523 0.04416861028039881 -0.030798546404263494 0.041542984985156094 -0.008159747963671837 0.03527031488530124 -2.4978655293863077 -0.42488070031172986 -0.9134405708048154 -0.7673876637211545 3.557647904006 0.3299754519866917 -1.1160167145084308 -2.248879828359226 -2.235357983908549 0.2890680568584102 -0.01623245834944716 -0.9343411082292696 -0.06452896958225936 12.967792460463544 0.047790963182701214 0.19410464023762977 0.32583642570815485 -0.26429102548376054 0.1383356875468189 -14.123891891524456 0.005011721902178769 -4.090590256871064 1.5520500047566246 -14.565950438158357 69.63857671269182 10.669953326638243 8.699647334506087 50.55535070271011 5.425863973015181 94.10683336280479 25.161033144850844 -0.3553633481967897 -4.986067155309764 4.501469974699519 -0.167092169724754 -1.6193844309234608 -0.04402185300114523 -0.007850209510049166 -56.23548982283624 -0.009612659065357378 0.030972047286834038 -56.24967657971646 -38.73579378334326 -0.016907939294860792 -0.023369071396503946 -0.049640534635622686 -0.009953389177218974 -0.024791887468442735 -0.022215263943086986 0.02089134306816904 -0.008004063627338954 -36.70969505532943 0.013550992675688834 0.00959311809714242 -0.02350103728917807 -0.04357492598140215 0.014190457605100555 0.03047588725986739 0.009425619406704753 -0.033052720324293496 -19.808295847916387 0.04322408310627135 -0.012571003004881906 -0.0038618501660909054 -0.014462495042983263 -0.04095256970027945 -0.004396138729250059 -0.018494781776012218 -0.0029302095940735014 24.055721310329346 -0.009152151344686615 -0.0061488754282359405 28.898365906661432 -0.02829080952074708 0.04345893246519717 28.892698323051235 -0.0015562110833986405 0.022052618370096918 6.887402848984831 1.6061849917233932 11.940904190118433 -70.06567559419469 14.263065361885802 -13.955481906453638 -78.26659758299684 0.9735315767012872 -97.77703108871209 -18.062799801641088 -2.1442198734009184 -0.12076221702270747 -0.48409831312250434 0.01808359054550114 -8.164598791004268 -0.00045965707482635923 0.008348858473886021 44.563085411363204 -0.0077556480526563935 -0.009958603064038863 44.56874120491743 12.437526693369461 -0.022682035418273554 0.008851699167753961 0.047538167328259016 0.041709740331653915 0.015425911740906226 -0.04688034615043861 -0.040826990950194514 0.039345012481214026 11.125848147963117 -0.029808056358686812 0.027360244479261945 -0.039323554185587806 -0.019638072233638407 0.020456351943478873 0.009499001001281093 0.008023487777282186 -0.02249280187028009 4.731928264231417 0.0034193246204493335 0.03568786012051018 -0.0014995146406340519 0.025471556301550458 -0.007589419182519443 -0.02889548156040815 -0.017823656996077533 -0.030107492684178398 -5.566060412823496 0.010835231168986402 0.016876702622518034 -6.708840611762316 0.03390470382738445 0.037907889968577316 -6.678701983099732 -0.017024482474413596 0.035523040823644624 0.01377184100634627 -0.04713040061234147 -0.029125569962385318 8.086350247815204 3.4645042123095733 -19.20543112135416 -0.045780693134634586 10.379434310395613 0.011637039307150243 -5.646573450418881 -15.689207526797565 3.16526963211997 0.022162705858080483 -0.020037596532023638 0.02862463928225681 0.049585975035508864 4.68022229429651 -0.015118433108087989 12.465013497138134 -8.220582412841644 6.8719388950961156 0.027897456863315746 46.39095542674576 0.0028152418849631744 -4.361411924592329 -14.760800889357336 -3.815902764650512 -0.04902201985852808 -0.0015867882465066705 -0.03513466006554702 -0.00814926966275991 -10.761709675341367 -0.009970217429549514 
-0.022263630731273916 -0.04056038237142705 -0.014860593224905728 0.04485622171682637 0.006667940701995912 0.035861074509759096 -2.543527987209891 -0.41689584456688505 -0.9285869225366931 -0.7850252907107388 3.552531290843766 0.2963383718939062 -1.0633069569034035 -2.285601733503441 -2.266159947490286 0.2646154233390501 0.028304969069823833 -0.9896835937122178 -0.07367160913340842 12.839098517957067 0.09124939185788283 0.19803013601782288 0.2590317033140658 -0.26880873586259685 0.16308712605658676 -14.205718933308184 -0.03540171712316516 -3.9769644271921814 1.5384705186837353 -14.641095998391467 69.72794871066922 10.484433977936677 7.565965878292102 49.1943037442328 6.023843160258513 92.88504737273556 24.929057853312642 -0.3491893124420531 -4.913143181962961 4.545495910431528 -0.1284649843281412 -1.5614448460609047 0.012637468400700937 -0.004735275895253041 -56.2790714464682 0.008716079733975257 0.00109279619648056 -56.21637214223536 -38.77420737778103 0.01807838404922897 0.04276390984210162 0.036057005170585334 -0.011427271673949028 0.04250265193541396 -0.0066041750362651796 0.0014781484236795152 -0.03833467617646296 -36.69785604262511 0.02152756258839993 -0.003433223884655352 -0.024322192041829654 0.005620968041113855 0.04859240273768829 0.04033772456869713 0.048707910968685146 -0.0299758248443999 -19.755539583305897 -0.018652789035392404 0.04609699428618375 0.04551639911959027 0.009274200783105774 -0.034024539972295764 -0.043161191539751086 -0.003174208801445412 -0.04663739335294018 24.05304095915806 -0.023736789430853753 -0.04632595888084367 28.899077821489875 -0.0046407373820560194 -0.007475547625707129 28.828115417227266 -0.024431616483092698 -0.013990932702678706 6.802371576574591 1.5880214203680965 12.01905318818684 -70.47418222010923 13.346887747327466 -13.283774738751758 -78.99615904859371 1.0226369177104304 -98.12501848113936 -17.660341386403395 -1.8736050506091524 -0.5076744773028686 -0.4739614483864151 0.07608372204926538 -8.151159727059627 0.02236526517202475 -0.044268452564052096 44.60131452430806 -0.0039020957228265807 -0.030086438914129807 44.567937550825825 12.484380328417176 -0.024466692388889568 -0.0071390682972226425 0.0060534473870777605 -0.022524519120502504 0.024871125159555297 0.026501395857839744 0.014196949022601258 -0.023211473700727993 11.124153762545271 0.04464575344226827 0.02223347426653678 -0.043455606932423126 -0.030375320962216637 -0.045939208015946274 0.022690546480927817 0.04726650228694014 0.04553625083196259 4.771880746082141 -0.023761913062466132 -0.027908177344986882 0.04749636375726629 -0.03749602759296942 0.03958033011263823 0.0404682827674744 -0.023240451249071165 -0.048242187535539584 -5.636502110991778 -0.018235230853242454 -0.036699463028042036 -6.745843099921377 0.007794893255732446 -0.014167930229568138 -6.754214071116086 -0.005099026127884258 -0.04282173738197064 -0.04131952436617383 0.04528246258545818 -0.007256616743009936 8.048423089989122 3.483128295267056 -19.246469973060698 -0.019094458214106762 10.416498176350215 0.014530904091162256 -5.578190159371835 -15.701962560706296 3.2088938959922215 0.03775098079836374 0.02973211506561362 0.04892173295510173 -0.008225470982032114 4.651218450079368 0.0003634135021667464 12.433925545969092 -8.244740559359933 6.8998860494673115 0.0052644274997561144 46.35907170849231 0.024873046504372706 -4.285200869092971 -14.71959483631447 -3.8127500049571617 0.028498026378446048 -0.01129790471054723 0.039545016840460405 0.0023948123216209764 -10.751568518471302 0.0404642077006402 
-0.04783207143352766 0.02106437311670945 -0.02367073021607366 0.008102351074347322 -0.001966900369086112 0.04317730098979696 -2.6334039062021564 -0.4227758191565586 -0.8828786241832658 -0.7537425932914097 3.46531464668781 0.3221542440128305 -1.0382605233910016 -2.230885417705246 -2.2956953415636274 0.3130439527283421 0.05241187872396516 -0.95324919492275 0.0046074894244202 12.624663391595652 0.027759547015696506 0.2647337440749705 0.2912039392046639 -0.3394790636780078 0.1326628780433361 -14.299169712135987 -0.03119188414591127 -3.827292797197023 1.5007617146181795 -14.714274452443215 69.69184273420547 9.885249516349669 6.585602537744495 47.7633778283995 6.531354266165658 91.98489537378288 24.72415224718906 -0.35280487302557684 -5.106021549157754 4.563054409858925 -0.09825001953957571 -1.5761999159188917 0.03498023484745591 -0.04251207227305694 -56.27264532299998 -0.01342889638999619 0.009077370870457678 -56.229526450605 -38.72443788686938 0.015861316636689278 -0.035263784392864844 0.04543264200442167 -0.00823708085457382 -0.005279013379362882 -0.03192056678901961 0.02599054875137449 0.028057864222326864 -36.66724424245402 0.005404264988098707 0.00033634365279691604 -0.011009201686723638 0.03379120738978974 -0.008966781130512113 -0.010410161034896047 -0.04114797881545912 -0.04371732130146526 -19.76617699375124 -0.04093825742393288 -0.04880220154625054 -0.04097934655668393 0.04694760301819916 0.013129749033968284 -0.0065964111911613835 0.03867803235336281 0.04045347487068666 24.031490882690033 -0.02791924467344508 0.016795739486579586 28.829070678798445 -0.01833370458979956 -0.00965791297141688 28.884517153399386 -0.0344930957590298 0.013699410137016154 6.641384484473263 1.5791550110065642 12.12659916536055 -70.72811639063006 12.560094719968912 -12.507589308802066 -78.94997981821547 1.0778549111199685 -98.26098155470562 -17.103620375710683 -1.6382169735800116 -0.7680277916460416 -0.48295809555290026 0.060390864011875114 -8.158790706687748 0.019569484513252893 -0.0237366262712424 44.56751896408562 -0.029680312437298444 0.03784875359704181 44.5560884485652 12.494824983712498 -0.04003889597668652 -0.04762416355984179 -0.04165887111547766 0.043168274567251745 0.004455031815023891 -0.010039008468767636 0.012058746260548904 0.03141135743330604 11.095503600610048 0.004470953306109451 0.012381248906283027 0.0031657158585968715 -0.003186390191902836 0.027272767233059263 -0.0194855649100519 0.04234399130799177 0.017766679745025472 4.773654614126753 -0.04451923911537573 -0.004595545483348536 -0.023442831792341308 -0.03454525093033568 -0.002382585640801007 0.030141196227885293 0.0441329475762719 0.010309965722670286 -5.618160115652225 0.03809312148143399 0.010009085612004523 -6.725133343470251 0.012029560160609612 -0.029392954395841758 -6.760179928396408 0.04554843077525733 -0.02200686987035252 -0.029452255562798103 -0.04632642533431485 -0.0008408400246894125 8.038703275329205 3.530005794864963 -19.201599362651372 -0.0100213743687986 10.382697737740973 0.057974496588456784 -5.618244273436942 -15.701126524955882 3.1852180974006346 0.01782430992589162 0.0032650159762821437 0.04193366649897436 0.014764066515359463 4.688800574896907 -0.009136457528673139 12.474997207775516 -8.255421089661171 6.91108630370287 -0.014972983277353519 46.362223308957724 -0.03148217446357487 -4.348662536469228 -14.761663950735086 -3.8640877675158913 -0.014747020727701642 0.025440315336091517 0.015392094769584601 0.00726151114201899 -10.724872566130847 0.020139616761860622 
